HIERARCHY
ROOT hip
{
  OFFSET 0 0 0
  CHANNELS 6 Xposition Yposition Zposition Zrotation Yrotation Xrotation
  JOINT abdomen
  {
    OFFSET 0 20.6881 -0.73152
    CHANNELS 3 Zrotation Xrotation Yrotation
    JOINT chest
    {
      OFFSET 0 11.7043 -0.48768
      CHANNELS 3 Zrotation Xrotation Yrotation
      JOINT neck
      {
        OFFSET 0 22.1894 -2.19456
        CHANNELS 3 Zrotation Xrotation Yrotation
        JOINT head
        {
          OFFSET -0.24384 7.07133 1.2192
          CHANNELS 3 Zrotation Xrotation Yrotation
          JOINT leftEye
          {
            OFFSET 4.14528 8.04674 8.04672
            CHANNELS 3 Zrotation Xrotation Yrotation
            End Site
            {
              OFFSET 1 0 0
            }
          }
          JOINT rightEye
          {
            OFFSET -3.6576 8.04674 8.04672
            CHANNELS 3 Zrotation Xrotation Yrotation
            End Site
            {
              OFFSET 1 0 0
            }
          }
        }
      }
      JOINT rCollar
      {
        OFFSET -2.68224 19.2634 -4.8768
        CHANNELS 3 Zrotation Xrotation Yrotation
        JOINT rShldr
        {
          OFFSET -8.77824 -1.95073 1.46304
          CHANNELS 3 Zrotation Xrotation Yrotation
          JOINT rForeArm
          {
            OFFSET -28.1742 -1.7115 0.48768
            CHANNELS 3 Zrotation Xrotation Yrotation
            JOINT rHand
            {
              OFFSET -22.5879 0.773209 7.07136
              CHANNELS 3 Zrotation Xrotation Yrotation
              JOINT rThumb1
              {
                OFFSET -1.2192 -0.487915 3.41376
                CHANNELS 3 Zrotation Xrotation Yrotation
                JOINT rThumb2
                {
                  OFFSET -3.37035 -0.52449 3.41376
                  CHANNELS 3 Zrotation Xrotation Yrotation
                  End Site
                  {
                    OFFSET -1.78271 -1.18214 1.43049
                  }
                }
              }
              JOINT rIndex1
              {
                OFFSET -7.75947 0.938293 5.60832
                CHANNELS 3 Zrotation Xrotation Yrotation
                JOINT rIndex2
                {
                  OFFSET -2.54057 -0.884171 1.56538
                  CHANNELS 3 Zrotation Xrotation Yrotation
                  End Site
                  {
                    OFFSET -1.62519 -0.234802 1.16502
                  }
                }
              }
              JOINT rMid1
              {
                OFFSET -8.24714 1.18213 3.41376
                CHANNELS 3 Zrotation Xrotation Yrotation
                JOINT rMid2
                {
                  OFFSET -3.10165 -0.590103 1.0647
                  CHANNELS 3 Zrotation Xrotation Yrotation
                  End Site
                  {
                    OFFSET -2.48547 -0.328903 0.83742
                  }
                }
              }
              JOINT rRing1
              {
                OFFSET -8.82822 0.546677 1.51678
                CHANNELS 3 Zrotation Xrotation Yrotation
                JOINT rRing2
                {
                  OFFSET -2.60934 -0.819778 -0.0198488
                  CHANNELS 3 Zrotation Xrotation Yrotation
                  End Site
                  {
                    OFFSET -2.33842 -0.294052 0.168128
                  }
                }
              }
              JOINT rPinky1
              {
                OFFSET -8.27202 -0.0477905 -0.4584
                CHANNELS 3 Zrotation Xrotation Yrotation
                JOINT rPinky2
                {
                  OFFSET -1.82734 -0.647385 -0.700984
                  CHANNELS 3 Zrotation Xrotation Yrotation
                  End Site
                  {
                    OFFSET -1.69225 -0.51767 -0.607171
                  }
                }
              }
            }
          }
        }
      }
      JOINT lCollar
      {
        OFFSET 2.68224 19.2634 -4.8768
        CHANNELS 3 Zrotation Xrotation Yrotation
        JOINT lShldr
        {
          OFFSET 8.77824 -1.95073 1.46304
          CHANNELS 3 Zrotation Xrotation Yrotation
          JOINT lForeArm
          {
            OFFSET 28.1742 -1.7115 0.48768
            CHANNELS 3 Zrotation Xrotation Yrotation
            JOINT lHand
            {
              OFFSET 22.5879 0.773209 7.07136
              CHANNELS 3 Zrotation Xrotation Yrotation
              JOINT lThumb1
              {
                OFFSET 1.2192 -0.487915 3.41376
                CHANNELS 3 Zrotation Xrotation Yrotation
                JOINT lThumb2
                {
                  OFFSET 3.37035 -0.52449 3.41376
                  CHANNELS 3 Zrotation Xrotation Yrotation
                  End Site
                  {
                    OFFSET 1.78271 -1.18214 1.43049
                  }
                }
              }
              JOINT lIndex1
              {
                OFFSET 7.75947 0.938293 5.60832
                CHANNELS 3 Zrotation Xrotation Yrotation
                JOINT lIndex2
                {
                  OFFSET 2.54057 -0.884171 1.56538
                  CHANNELS 3 Zrotation Xrotation Yrotation
                  End Site
                  {
                    OFFSET 1.62519 -0.234802 1.16502
                  }
                }
              }
              JOINT lMid1
              {
                OFFSET 8.24714 1.18213 3.41376
                CHANNELS 3 Zrotation Xrotation Yrotation
                JOINT lMid2
                {
                  OFFSET 3.10165 -0.590103 1.0647
                  CHANNELS 3 Zrotation Xrotation Yrotation
                  End Site
                  {
                    OFFSET 2.48547 -0.328903 0.83742
                  }
                }
              }
              JOINT lRing1
              {
                OFFSET 8.82822 0.546677 1.51678
                CHANNELS 3 Zrotation Xrotation Yrotation
                JOINT lRing2
                {
                  OFFSET 2.60934 -0.819778 -0.0198488
                  CHANNELS 3 Zrotation Xrotation Yrotation
                  End Site
                  {
                    OFFSET 2.33842 -0.294052 0.168128
                  }
                }
              }
              JOINT lPinky1
              {
                OFFSET 8.27202 -0.0477905 -0.4584
                CHANNELS 3 Zrotation Xrotation Yrotation
                JOINT lPinky2
                {
                  OFFSET 1.82734 -0.647385 -0.700984
                  CHANNELS 3 Zrotation Xrotation Yrotation
                  End Site
                  {
                    OFFSET 1.69225 -0.51767 -0.607171
                  }
                }
              }
            }
          }
        }
      }
    }
  }
  JOINT rButtock
  {
    OFFSET -8.77824 4.35084 1.2192
    CHANNELS 3 Zrotation Xrotation Yrotation
    JOINT rThigh
    {
      OFFSET 0 -1.70687 -2.19456
      CHANNELS 3 Zrotation Xrotation Yrotation
      JOINT rShin
      {
        OFFSET 0 -36.8199 0.73152
        CHANNELS 3 Zrotation Xrotation Yrotation
        JOINT rFoot
        {
          OFFSET 0.73152 -45.1104 -5.12064
          CHANNELS 3 Zrotation Xrotation Yrotation
          End Site
          {
            OFFSET -1.1221 -3.69964 12.103
          }
        }
      }
    }
  }
  JOINT lButtock
  {
    OFFSET 8.77824 4.35084 1.2192
    CHANNELS 3 Zrotation Xrotation Yrotation
    JOINT lThigh
    {
      OFFSET 0 -1.70687 -2.19456
      CHANNELS 3 Zrotation Xrotation Yrotation
      JOINT lShin
      {
        OFFSET 0 -36.8199 0.73152
        CHANNELS 3 Zrotation Xrotation Yrotation
        JOINT lFoot
        {
          OFFSET -0.73152 -45.1104 -5.12064
          CHANNELS 3 Zrotation Xrotation Yrotation
          End Site
          {
            OFFSET 1.1221 -3.69964 12.103
          }
        }
      }
    }
  }
}
MOTION
Frames: 9
Frame Time:	0.06666666
41.4435 82.0104 -34.4745 2.193 -5.7396 4.4646 -8.68819 -2.26397 6.33665 -0.0983565 -1.35036 1.67621 -1.77584 6.1612 -0.0806133 2.77984 -5.69073 0.298984 -0.0 0.0 0.0 -0.0 0.0 0.0 8.23408e-14 -6.69111e-14 1.20693e-13 87.6171 13.4534 -13.5253 -11.2499 -4.93601 20.168 -0.0335462 5.14271 0.724817 -1.44624e-09 1.30234e-09 4.05273e-10 -2.4976e-09 2.25452e-09 7.09232e-10 -1.44624e-09 1.30234e-09 4.0527e-10 7.73091 5.47488 0.417314 -1.44624e-09 1.30234e-09 4.05271e-10 2.90554 0.965183 0.102902 -1.44624e-09 1.30234e-09 4.05275e-10 10.2786 0.731801 0.0259123 -1.44624e-09 1.30235e-09 4.05282e-10 2.22167 -0.733487 -0.20892 8.23522e-14 -6.69062e-14 1.20491e-13 -78.2422 15.633 -8.32371 10.0945 -4.19749 -17.9813 0.0425902 -6.05485 0.853943 -1.58546e-09 -2.74577e-09 -6.74149e-11 -2.7403e-09 -4.74893e-09 -1.22175e-10 -1.58547e-09 -2.74578e-09 -6.74097e-11 -7.73091 5.47488 -0.417314 -1.58546e-09 -2.74578e-09 -6.74202e-11 -2.90554 0.965183 -0.102902 -1.58547e-09 -2.74577e-09 -6.74187e-11 -10.2786 0.731801 -0.0259123 -1.58546e-09 -2.74577e-09 -6.74298e-11 -2.22167 -0.733487 0.20892 -2.03217e-16 0.0 -3.88251e-19 -3.13245 -35.7809 2.30866 -1.09534 60.174 1.52165 0.906511 -6.45164 3.60568 2.03217e-16 0.0 3.88251e-19 -9.18848 -24.321 1.89826 0.115291 36.9893 -0.647631 0.793198 -17.2866 0.759033
41.5494 82.0771 -32.8054 2.3754 -5.4753 4.3807 -8.77522 -2.12684 5.57698 0.209483 -1.70388 1.48949 -1.72205 6.29858 0.0295322 2.54442 -5.6528 0.485307 -0.0 0.0 0.0 -0.0 0.0 0.0 8.90237e-14 -7.2506e-14 7.61687e-14 87.8374 12.2849 -15.4627 -11.1788 -4.89094 20.0286 -0.0359964 5.49773 0.774935 -1.55766e-09 8.59912e-10 2.76451e-10 -2.69065e-09 1.48863e-09 4.86878e-10 -1.55766e-09 8.59913e-10 2.76443e-10 7.73091 5.47488 0.417314 -1.55767e-09 8.59917e-10 2.76446e-10 2.90554 0.965183 0.102902 -1.55766e-09 8.59918e-10 2.76451e-10 10.2786 0.731801 0.0259123 -1.55767e-09 8.59921e-10 2.76458e-10 2.22167 -0.733487 -0.20892 8.90831e-14 -7.25059e-14 7.59175e-14 -76.999 18.1243 -10.4329 10.8282 -4.66262 -19.3595 0.090192 -8.44301 1.1955 -1.62967e-09 -2.18036e-09 -4.47686e-10 -2.81532e-09 -3.76818e-09 -7.79731e-10 -1.62967e-09 -2.18036e-09 -4.47682e-10 -7.73091 5.47488 -0.417314 -1.62967e-09 -2.18036e-09 -4.47691e-10 -2.90554 0.965183 -0.102902 -1.62967e-09 -2.18036e-09 -4.47693e-10 -10.2786 0.731801 -0.0259123 -1.62966e-09 -2.18036e-09 -4.47705e-10 -2.22167 -0.733487 0.20892 -2.03217e-16 0.0 -3.88251e-19 -3.12175 -37.0094 1.83182 -0.930184 57.6504 1.43145 0.895727 -8.42541 3.36525 2.03217e-16 0.0 3.88251e-19 -9.47495 -22.5223 1.82596 0.0807461 36.1829 -0.771419 0.756544 -17.9281 0.518887
41.6302 82.302 -31.154 2.3284 -5.1781 4.3831 -8.85657 -1.98422 4.822 0.525242 -1.99557 1.30476 -1.70448 6.63324 0.0257906 2.24064 -6.09671 0.456067 -0.0 0.0 0.0 -0.0 0.0 0.0 -3.30988e-16 -4.90183e-14 2.26956e-14 87.3809 9.50253 -16.7533 -10.6812 -4.56763 19.0822 -0.0629523 7.1955 1.01657 -2.60779e-10 1.08125e-10 5.76721e-10 -4.47076e-10 1.87208e-10 9.98099e-10 -2.60778e-10 1.08126e-10 5.76699e-10 7.73091 5.47488 0.417314 -2.60778e-10 1.08127e-10 5.76712e-10 2.90554 0.965183 0.102902 -2.60771e-10 1.0813e-10 5.76713e-10 10.2786 0.731801 0.0259123 -2.60782e-10 1.08133e-10 5.76719e-10 2.22167 -0.733487 -0.20892 -4.07491e-16 -4.90183e-14 2.24856e-14 -75.7893 19.9709 -12.4047 11.6644 -5.21815 -20.9592 0.130853 -10.2263 1.45296 -2.36832e-10 -5.97789e-10 -5.92695e-10 -4.06392e-10 -1.02973e-09 -1.02511e-09 -2.36836e-10 -5.97786e-10 -5.92682e-10 -7.73091 5.47488 -0.417314 -2.36832e-10 -5.97789e-10 -5.92691e-10 -2.90554 0.965183 -0.102902 -2.36833e-10 -5.97789e-10 -5.92698e-10 -10.2786 0.731801 -0.0259123 -2.36827e-10 -5.97788e-10 -5.92707e-10 -2.22167 -0.733487 0.20892 -2.03217e-16 0.0 -3.88251e-19 -3.17155 -37.9534 1.39487 -0.765702 54.5531 1.33254 1.05032 -9.96512 3.73396 2.03217e-16 0.0 3.88251e-19 -9.6288 -20.4429 1.90516 0.0327063 34.8266 -0.872716 0.647137 -18.412 0.103295
41.7685 82.5113 -29.3642 2.8219 -5.0593 4.0783 -8.69516 -1.99472 4.21555 0.805785 -2.15771 1.16347 -1.71629 6.68345 0.0867725 2.07708 -6.08818 0.56547 -0.0 0.0 0.0 -0.0 0.0 0.0 -1.74342e-14 -7.48384e-14 5.68431e-14 86.8929 7.12085 -18.1139 -10.3267 -4.34153 18.4169 -0.0940902 8.71925 1.23501 6.1905e-11 3.7942e-11 1.00834e-09 1.15055e-10 6.62202e-11 1.74322e-09 6.1905e-11 3.79409e-11 1.00831e-09 7.73091 5.47488 0.417314 6.19066e-11 3.79403e-11 1.00833e-09 2.90554 0.965183 0.102902 6.1915e-11 3.79426e-11 1.00833e-09 10.2786 0.731801 0.0259123 6.1902e-11 3.79461e-11 1.00834e-09 2.22167 -0.733487 -0.20892 -1.75939e-14 -7.48369e-14 5.66424e-14 -74.4271 21.4923 -14.4437 12.4169 -5.74478 -22.4203 0.182097 -12.0882 1.72463 -1.66208e-11 -8.20766e-10 -6.33424e-10 -2.51189e-11 -1.41408e-09 -1.09638e-09 -1.66249e-11 -8.20762e-10 -6.33407e-10 -7.73091 5.47488 -0.417314 -1.6621e-11 -8.20765e-10 -6.33419e-10 -2.90554 0.965183 -0.102902 -1.66212e-11 -8.20766e-10 -6.33426e-10 -10.2786 0.731801 -0.0259123 -1.66162e-11 -8.20766e-10 -6.33433e-10 -2.22167 -0.733487 0.20892 -2.03217e-16 0.0 -3.88251e-19 -2.80481 -38.6877 1.44039 -0.61262 50.9091 1.23533 1.09841 -10.4937 3.95662 2.03217e-16 0.0 3.88251e-19 -9.65608 -18.317 1.86865 -0.0160444 33.2368 -0.957222 0.568728 -18.7485 -0.183843
41.7735 82.7492 -27.7407 2.6541 -5.0388 4.1708 -8.29578 -2.15889 3.75747 1.05244 -2.19026 1.06564 -1.75672 6.44919 0.212392 2.05108 -5.62716 0.813245 -0.0 0.0 0.0 -0.0 0.0 0.0 3.77142e-14 -1.49966e-13 1.78611e-13 86.3939 5.13683 -19.5397 -10.1224 -4.21599 18.0315 -0.125501 10.069 1.42991 -5.89612e-10 6.49362e-10 1.5713e-09 -1.00426e-09 1.12567e-09 2.72224e-09 -5.89611e-10 6.49358e-10 1.57129e-09 7.73091 5.47488 0.417314 -5.89613e-10 6.49357e-10 1.5713e-09 2.90554 0.965183 0.102902 -5.89604e-10 6.49357e-10 1.57131e-09 10.2786 0.731801 0.0259123 -5.89618e-10 6.49361e-10 1.57132e-09 2.22167 -0.733487 -0.20892 3.7524e-14 -1.49962e-13 1.78388e-13 -72.9417 22.6875 -16.5376 13.0915 -6.24468 -23.7424 0.246501 -14.0286 2.01208 -9.69033e-10 -2.84929e-09 -5.69873e-10 -1.67151e-09 -4.92123e-09 -9.93556e-10 -9.69036e-10 -2.84929e-09 -5.69857e-10 -7.73091 5.47488 -0.417314 -9.69033e-10 -2.84929e-09 -5.69875e-10 -2.90554 0.965183 -0.102902 -9.69037e-10 -2.84929e-09 -5.69877e-10 -10.2786 0.731801 -0.0259123 -9.69029e-10 -2.84929e-09 -5.69885e-10 -2.22167 -0.733487 0.20892 -2.03217e-16 0.0 -3.88251e-19 -1.99826 -39.2114 1.98257 -0.474806 46.7185 1.14407 1.02388 -10.0125 4.02872 2.03217e-16 0.0 3.88251e-19 -9.5432 -16.1444 1.72093 -0.0650822 31.4135 -1.02568 0.526044 -18.9382 -0.341057
41.728 83.0254 -26.1016 2.3401 -4.8718 4.4721 -8.1729 -2.26809 3.28482 1.21531 -2.27378 0.958197 -1.78024 6.39743 0.252781 2.03576 -5.55336 0.893834 -0.0 0.0 0.0 -0.0 0.0 0.0 1.7974e-13 -8.60406e-14 1.82374e-13 86.1142 3.75171 -20.9299 -9.96346 -4.11903 17.7332 -0.152529 11.0461 1.57223 -1.80128e-09 6.86674e-10 4.96257e-10 -3.10685e-09 1.19156e-09 8.77021e-10 -1.80128e-09 6.86671e-10 4.96249e-10 7.73091 5.47488 0.417314 -1.80128e-09 6.86669e-10 4.96259e-10 2.90554 0.965183 0.102902 -1.80127e-09 6.86668e-10 4.96263e-10 10.2786 0.731801 0.0259123 -1.80128e-09 6.86671e-10 4.96275e-10 2.22167 -0.733487 -0.20892 1.79556e-13 -8.60359e-14 1.82077e-13 -71.2884 23.7558 -18.6333 13.7007 -6.71502 -24.9539 0.303367 -15.4541 2.22704 -1.98989e-09 -4.48056e-09 -3.52742e-10 -3.43421e-09 -7.73451e-09 -6.30184e-10 -1.98989e-09 -4.48056e-09 -3.52727e-10 -7.73091 5.47488 -0.417314 -1.98989e-09 -4.48056e-09 -3.52744e-10 -2.90554 0.965183 -0.102902 -1.98989e-09 -4.48056e-09 -3.52745e-10 -10.2786 0.731801 -0.0259123 -1.98988e-09 -4.48056e-09 -3.52755e-10 -2.22167 -0.733487 0.20892 -2.03217e-16 0.0 -3.88251e-19 -1.463 -39.7609 2.69072 -0.372439 42.8666 1.08299 0.938151 -9.37544 4.09977 2.03217e-16 0.0 3.88251e-19 -9.54295 -13.9675 1.83864 -0.11203 29.4007 -1.07389 0.42805 -18.886 -0.644204
41.8032 83.3913 -24.5155 2.5503 -4.5173 4.565 -8.32523 -2.32219 2.79761 1.29408 -2.40826 0.841131 -1.78747 6.52819 0.208007 2.03343 -5.86683 0.807448 -0.0 0.0 0.0 -0.0 0.0 0.0 4.08642e-13 1.16938e-13 6.81319e-14 86.0994 2.95148 -22.2752 -9.85073 -4.05106 17.5218 -0.169579 11.6506 1.66059 -3.5731e-09 1.49878e-10 -2.2168e-09 -6.19272e-09 2.6387e-10 -3.79243e-09 -3.57309e-09 1.4988e-10 -2.2168e-09 7.73091 5.47488 0.417314 -3.5731e-09 1.49877e-10 -2.21679e-09 2.90554 0.965183 0.102902 -3.57308e-09 1.49877e-10 -2.2168e-09 10.2786 0.731801 0.0259123 -3.5731e-09 1.49876e-10 -2.21679e-09 2.22167 -0.733487 -0.20892 4.08503e-13 1.16941e-13 6.77099e-14 -69.4795 24.697 -20.7259 14.2489 -7.15793 -26.0544 0.340957 -16.3655 2.36558 -3.07919e-09 -5.71459e-09 1.79712e-11 -5.31325e-09 -9.85391e-09 -6.26828e-12 -3.0792e-09 -5.7146e-09 1.79809e-11 -7.73091 5.47488 -0.417314 -3.07919e-09 -5.71459e-09 1.79726e-11 -2.90554 0.965183 -0.102902 -3.07919e-09 -5.71459e-09 1.79683e-11 -10.2786 0.731801 -0.0259123 -3.07918e-09 -5.71459e-09 1.79579e-11 -2.22167 -0.733487 0.20892 -2.03217e-16 0.0 -3.88251e-19 -1.19139 -40.3329 3.56984 -0.297011 39.3536 1.04389 0.840657 -8.58266 4.17006 2.03217e-16 0.0 3.88251e-19 -9.68612 -11.7871 2.21428 -0.155014 27.1984 -1.10335 0.279211 -18.5913 -1.09185
41.9207 83.4947 -23.0172 2.9692 -4.2032 4.7554 -8.33745 -2.45644 2.3409 1.43301 -2.54688 0.731351 -1.68937 6.58904 0.21948 1.75274 -6.06 0.798742 -0.0 0.0 0.0 -0.0 0.0 0.0 3.35633e-13 1.86038e-13 3.28736e-14 85.8116 2.00972 -23.5447 -9.75029 -3.99091 17.3339 -0.186099 12.1972 1.74086 -2.78545e-09 1.02447e-10 -2.50061e-09 -4.83483e-09 1.79601e-10 -4.29159e-09 -2.78544e-09 1.02451e-10 -2.50062e-09 7.73091 5.47488 0.417314 -2.78545e-09 1.02448e-10 -2.50061e-09 2.90554 0.965183 0.102902 -2.78544e-09 1.02448e-10 -2.50061e-09 10.2786 0.731801 0.0259123 -2.78545e-09 1.02445e-10 -2.50061e-09 2.22167 -0.733487 -0.20892 3.35496e-13 1.86039e-13 3.24504e-14 -67.7731 25.2687 -22.7525 14.6769 -7.51189 -26.9301 0.392017 -17.5365 2.54518 -2.35177e-09 -3.83418e-09 1.97956e-10 -4.05798e-09 -6.6084e-09 3.12517e-10 -2.35178e-09 -3.83418e-09 1.97969e-10 -7.73091 5.47488 -0.417314 -2.35177e-09 -3.83417e-09 1.97961e-10 -2.90554 0.965183 -0.102902 -2.35177e-09 -3.83417e-09 1.97954e-10 -10.2786 0.731801 -0.0259123 -2.35177e-09 -3.83418e-09 1.97945e-10 -2.22167 -0.733487 0.20892 -2.03217e-16 0.0 -3.88251e-19 -1.01114 -40.9699 3.85419 -0.23712 36.0772 1.02176 0.874929 -8.49662 4.50159 2.03217e-16 0.0 3.88251e-19 -9.81845 -9.72667 2.45789 -0.166689 25.1098 -1.12456 0.171233 -18.3722 -1.37309
41.9435 83.5855 -21.4374 2.903 -4.0735 4.9837 -8.21125 -2.6709 1.91462 1.63214 -2.68962 0.628856 -1.48609 6.57996 0.287215 1.19455 -6.13287 0.867785 -0.0 0.0 0.0 -0.0 0.0 0.0 -3.92881e-14 1.21258e-13 7.65993e-14 85.2447 0.930924 -24.7421 -9.6623 -3.93864 17.1697 -0.2016 12.6858 1.81291 5.61659e-10 5.44381e-10 -3.55191e-10 9.66822e-10 9.38747e-10 -6.20462e-10 5.61664e-10 5.44383e-10 -3.55195e-10 7.73091 5.47488 0.417314 5.61658e-10 5.44381e-10 -3.55191e-10 2.90554 0.965183 0.102902 5.61669e-10 5.4438e-10 -3.55192e-10 10.2786 0.731801 0.0259123 5.61659e-10 5.44379e-10 -3.55178e-10 2.22167 -0.733487 -0.20892 -3.94638e-14 1.21258e-13 7.62988e-14 -66.2118 25.4842 -24.6913 14.9932 -7.78234 -27.5791 0.4618 -18.967 2.7683 1.92363e-10 1.16068e-09 1.87213e-10 3.31574e-10 2.00202e-09 3.2617e-10 1.92356e-10 1.16068e-09 1.87237e-10 -7.73091 5.47488 -0.417314 1.92364e-10 1.16068e-09 1.8722e-10 -2.90554 0.965183 -0.102902 1.92356e-10 1.16068e-09 1.87212e-10 -10.2786 0.731801 -0.0259123 1.92367e-10 1.16068e-09 1.87206e-10 -2.22167 -0.733487 0.20892 -2.03217e-16 0.0 -3.88251e-19 -0.947669 -41.6769 3.52756 -0.189308 33.0376 1.01351 1.05224 -9.11577 5.09584 2.03217e-16 0.0 3.88251e-19 -9.92401 -7.78616 2.57291 -0.145873 23.135 -1.13786 0.10094 -18.2295 -1.48893
